HIERARCHY
ROOT Hips
{
	OFFSET 0.00000 0.00000 0.00000
	CHANNELS 6 Xposition Yposition Zposition Zrotation Yrotation Xrotation 
	JOINT LHipJoint
	{
		OFFSET 0 0 0
		CHANNELS 3 Zrotation Yrotation Xrotation
		JOINT LeftHip
		{
			OFFSET 1.75344 -1.53157 0.77399
			CHANNELS 3 Zrotation Yrotation Xrotation
			JOINT LeftKnee
			{
				OFFSET 2.25415 -6.19323 0.00000
				CHANNELS 3 Zrotation Yrotation Xrotation
				JOINT LeftAnkle
				{
					OFFSET 2.30342 -6.32861 0.00000
					CHANNELS 3 Zrotation Yrotation Xrotation
					JOINT LeftToe
					{
						OFFSET 0.10958 -0.30108 1.49206
						CHANNELS 3 Zrotation Yrotation Xrotation
						End Site
						{
							OFFSET 0.00000 -0.00000 0.77783
						}
					}
				}
			}
		}
	}
	JOINT RHipJoint
	{
		OFFSET 0 0 0
		CHANNELS 3 Zrotation Yrotation Xrotation
		JOINT RightHip
		{
			OFFSET -1.81912 -1.53156 0.77399
			CHANNELS 3 Zrotation Yrotation Xrotation
			JOINT RightKnee
			{
				OFFSET -2.22882 -6.12365 0.00000
				CHANNELS 3 Zrotation Yrotation Xrotation
				JOINT RightAnkle
				{
					OFFSET -2.21943 -6.09785 0.00000
					CHANNELS 3 Zrotation Yrotation Xrotation
					JOINT RightToe
					{
						OFFSET -0.18931 -0.52012 1.59379
						CHANNELS 3 Zrotation Yrotation Xrotation
						End Site
						{
							OFFSET -0.00000 -0.00000 0.84686
						}
					}
				}
			}
		}
	}
	JOINT lowerback
	{
		OFFSET 0 0 0
		CHANNELS 3 Zrotation Yrotation Xrotation
		JOINT Chest
		{
			OFFSET -0.00200 1.66634 -0.14248
			CHANNELS 3 Zrotation Yrotation Xrotation
			JOINT Chest2
			{
				OFFSET -0.00875 1.64542 0.09514
				CHANNELS 3 Zrotation Yrotation Xrotation
				JOINT lowerneck
				{
					OFFSET 0 0 0
					CHANNELS 3 Zrotation Yrotation Xrotation
					JOINT Neck
					{
						OFFSET 0.02257 1.59605 0.00839
						CHANNELS 3 Zrotation Yrotation Xrotation
						JOINT Head
						{
							OFFSET -0.10214 1.57530 -0.23335
							CHANNELS 3 Zrotation Yrotation Xrotation
							End Site
							{
								OFFSET -0.03588 1.60717 -0.08062
							}
						}
					}
				}
				JOINT LeftCollar
				{
					OFFSET 0 0 0
					CHANNELS 3 Zrotation Yrotation Xrotation
					JOINT LeftShoulder
					{
						OFFSET 2.54983 1.10186 0.40078
CHANNELS 3 Zrotation Xrotation Yrotation
						JOINT LeftElbow
						{
OFFSET 0 -4.288400 0.000000
CHANNELS 3 Zrotation Xrotation Yrotation
							JOINT LeftWrist
							{
OFFSET 0 -3.065520 -0.000000
CHANNELS 3 Zrotation Xrotation Yrotation
								JOINT lhand
								{
									OFFSET 0 0 0
CHANNELS 3 Zrotation Xrotation Yrotation
									JOINT LFingers
									{
OFFSET 0 -0.753040 0.000000
CHANNELS 3 Zrotation Xrotation Yrotation
										End Site
										{
OFFSET 0 -0.607120 0.000000
										}
									}
								}
								JOINT LThumb
								{
OFFSET 0 0.000000 0.000000
CHANNELS 3 Zrotation Xrotation Yrotation
									End Site
									{
OFFSET 0 -0.616390 0.616390
									}
								}
							}
						}
					}
				}
				JOINT RightCollar
				{
					OFFSET 0 0 0
					CHANNELS 3 Zrotation Yrotation Xrotation
					JOINT RightShoulder
					{
						OFFSET -2.60909 1.35448 0.21802
CHANNELS 3 Zrotation Xrotation Yrotation
						JOINT RightElbow
						{
OFFSET 0 -4.521720 -0.000000
CHANNELS 3 Zrotation Xrotation Yrotation
							JOINT RightWrist
							{
OFFSET 0 -2.891400 0.000000
CHANNELS 3 Zrotation Xrotation Yrotation
								JOINT rhand
								{
									OFFSET 0 0 0
CHANNELS 3 Zrotation Xrotation Yrotation
									JOINT RFingers
									{
OFFSET 0 -0.680540 0.000000
CHANNELS 3 Zrotation Xrotation Yrotation
										End Site
										{
OFFSET 0 -0.548670 0.000000
										}
									}
								}
								JOINT RThumb
								{
OFFSET 0 0.000000 0.000000
CHANNELS 3 Zrotation Xrotation Yrotation
									End Site
									{
OFFSET 0 -0.557050 0.557050
									}
								}
							}
						}
					}
				}
			}
		}
	}
}
MOTION
Frames: 12
Frame Time: 0.008333333333333333
9.606500 15.621700 -10.387100 -0.496200 1.115800 6.507000 0.000000 0.000000 0.000000 -22.513100 -15.839200 -10.870700 2.268100 9.403400 27.065700 1.300500 5.446200 -24.130900 3.232600 -11.062400 -32.490600 0.000000 0.000000 0.000000 26.371100 15.054400 -4.951000 -1.170100 -6.866200 19.319500 0.627600 -20.139100 -23.032800 -0.080900 1.834400 -5.048300 0.744000 0.544100 9.825000 0.270400 0.848000 -2.775400 -0.276300 0.381400 -8.463000 -6.185800 -3.453400 -5.627400 5.453100 -4.437100 4.334200 2.701000 -2.153600 2.696200 -0.000000 -0.000000 0.000000 7.443800 15.012200 -22.240700 18.506100 -28.800400 4.790600 13.694400 2.444900 37.809900 0.000000 0.000000 0.000000 -7.125000 0.000000 0.000000 -10.813900 -8.026300 -12.426400 -0.000000 -0.000000 0.000000 -10.305800 15.876600 41.280900 -19.634100 -30.199000 -5.346100 -27.027100 48.493600 51.506400 0.000000 0.000000 0.000000 7.125000 0.000000 -0.000000 53.489100 81.400500 -46.225600
9.605594 15.618531 -10.388421 -0.467299 1.096973 6.577781 0.000000 0.000000 0.000000 -22.510572 -15.765061 -11.046859 2.286323 9.438413 27.176814 1.309442 5.323504 -24.129579 3.221017 -11.044516 -32.430120 0.000000 0.000000 0.000000 26.304017 15.017802 -5.212466 -1.201944 -6.954638 19.581419 0.591078 -19.984371 -23.127954 -0.079655 1.820478 -5.009891 0.717137 0.553646 9.856316 0.255157 0.856150 -2.761629 -0.279017 0.386267 -8.466358 -6.088080 -3.477924 -5.682183 5.360323 -4.467246 4.269154 2.648858 -2.168692 2.679561 0.000000 0.000000 0.000000 7.537294 15.172664 -22.234475 18.546999 -28.851901 4.810333 13.687533 2.445504 37.704220 0.000000 0.000000 0.000000 -7.125000 0.000000 0.000000 -10.804241 -7.921751 -12.398103 0.000000 0.000000 0.000000 -10.361225 15.891918 41.288031 -19.585655 -30.139840 -5.321764 -26.954735 48.403577 51.376648 0.000000 0.000000 0.000000 7.125000 0.000000 0.000000 52.730849 81.316288 -45.462935
9.604689 15.615361 -10.389741 -0.438398 1.078146 6.648561 0.000000 0.000000 0.000000 -22.508044 -15.690923 -11.223019 2.304547 9.473426 27.287927 1.318384 5.200807 -24.128259 3.209434 -11.026632 -32.369639 0.000000 0.000000 0.000000 26.236934 14.981205 -5.473932 -1.233787 -7.043076 19.843337 0.554556 -19.829642 -23.223108 -0.078410 1.806556 -4.971483 0.690273 0.563191 9.887631 0.239915 0.864299 -2.747857 -0.281733 0.391134 -8.469716 -5.990361 -3.502448 -5.736967 5.267546 -4.497392 4.204109 2.596716 -2.183784 2.662923 0.000000 0.000000 0.000000 7.630788 15.333128 -22.228249 18.587898 -28.903402 4.830065 13.680666 2.446107 37.598539 0.000000 0.000000 0.000000 -7.125000 0.000000 0.000000 -10.794582 -7.817203 -12.369806 0.000000 0.000000 0.000000 -10.416649 15.907236 41.295162 -19.537211 -30.080680 -5.297429 -26.882369 48.313555 51.246896 0.000000 0.000000 0.000000 7.125000 0.000000 0.000000 51.972598 81.232075 -44.700270
9.603731 15.612087 -10.391180 -0.416395 1.061455 6.720911 0.000000 0.000000 0.000000 -22.496996 -15.627744 -11.409966 2.325210 9.512831 27.413218 1.326798 5.099463 -24.135511 3.217660 -11.039135 -32.412096 0.000000 0.000000 0.000000 26.178423 14.953206 -5.726350 -1.263574 -7.124959 20.086185 0.523480 -19.695791 -23.300668 -0.078180 1.804068 -4.964621 0.665441 0.565905 9.915518 0.230620 0.863982 -2.727531 -0.277763 0.392018 -8.464119 -5.909035 -3.518980 -5.794440 5.184806 -4.515681 4.125953 2.551642 -2.192941 2.642565 0.000000 0.000000 0.000000 7.725917 15.493341 -22.231282 18.637488 -28.965730 4.854071 13.688399 2.427218 37.467497 0.000000 0.000000 0.000000 -7.125000 0.000000 0.000000 -10.774201 -7.690313 -12.325234 0.000000 0.000000 0.000000 -10.478141 15.900952 41.314294 -19.488528 -30.021151 -5.273027 -26.745446 48.183386 51.186767 0.000000 0.000000 0.000000 7.125000 0.000000 0.000000 51.667826 81.147586 -44.348510
9.602674 15.608616 -10.392840 -0.407227 1.048741 6.796182 0.000000 0.000000 0.000000 -22.470095 -15.584959 -11.616988 2.350413 9.560408 27.564891 1.334231 5.037851 -24.158715 3.262747 -11.108180 -32.646095 0.000000 0.000000 0.000000 26.135864 14.941208 -5.961933 -1.289532 -7.194646 20.293546 0.502540 -19.600788 -23.345491 -0.079840 1.822857 -5.016462 0.644388 0.555907 9.937023 0.232393 0.847909 -2.695009 -0.261351 0.385491 -8.441858 -5.858213 -3.520640 -5.856921 5.120741 -4.511908 4.023404 2.519723 -2.191054 2.615286 0.000000 0.000000 0.000000 7.824089 15.653088 -22.251543 18.703250 -29.048207 4.886028 13.723299 2.372058 37.289262 0.000000 0.000000 0.000000 -7.125000 0.000000 0.000000 -10.733868 -7.521850 -12.250378 0.000000 0.000000 0.000000 -10.550921 15.854469 41.355759 -19.439405 -29.960935 -5.248503 -26.488394 47.978514 51.256189 0.000000 0.000000 0.000000 7.125000 0.000000 0.000000 52.206868 81.062581 -44.761347
9.601618 15.605144 -10.394501 -0.398059 1.036026 6.871452 0.000000 0.000000 0.000000 -22.443194 -15.542173 -11.824010 2.375617 9.607985 27.716564 1.341664 4.976238 -24.181918 3.307834 -11.177225 -32.880093 0.000000 0.000000 0.000000 26.093305 14.929210 -6.197517 -1.315490 -7.264332 20.500908 0.481601 -19.505785 -23.390314 -0.081501 1.841647 -5.068302 0.623335 0.545908 9.958529 0.234166 0.831836 -2.662486 -0.244938 0.378964 -8.419598 -5.807391 -3.522301 -5.919401 5.056676 -4.508135 3.920855 2.487804 -2.189168 2.588008 0.000000 0.000000 0.000000 7.922261 15.812835 -22.271804 18.769013 -29.130684 4.917985 13.758199 2.316897 37.111028 0.000000 0.000000 0.000000 -7.125000 0.000000 0.000000 -10.693536 -7.353388 -12.175523 0.000000 0.000000 0.000000 -10.623702 15.807986 41.397224 -19.390281 -29.900718 -5.223979 -26.231343 47.773643 51.325612 0.000000 0.000000 0.000000 7.125000 0.000000 0.000000 52.745910 80.977577 -45.174184
9.600350 15.600987 -10.395870 -0.409860 1.039032 6.930052 0.000000 0.000000 0.000000 -22.395587 -15.505218 -12.016446 2.401005 9.655377 27.868026 1.350626 4.920719 -24.220737 3.354451 -11.247405 -33.119341 0.000000 0.000000 0.000000 26.083903 14.925679 -6.393903 -1.339680 -7.328058 20.691124 0.461267 -19.429774 -23.461514 -0.083002 1.858378 -5.114471 0.635596 0.538574 9.988344 0.229266 0.823334 -2.637322 -0.255774 0.374151 -8.409550 -5.779386 -3.523776 -5.939835 5.033048 -4.507554 3.839778 2.474217 -2.188706 2.562655 0.000000 0.000000 0.000000 8.019299 15.941219 -22.234905 18.790145 -29.157162 4.928233 13.850364 2.274213 37.025088 0.000000 0.000000 0.000000 -7.125000 0.000000 0.000000 -10.634185 -7.285317 -12.094759 0.000000 0.000000 0.000000 -10.646945 15.807901 41.363672 -19.354504 -29.856777 -5.206155 -25.869943 47.469777 51.426555 0.000000 0.000000 0.000000 7.125000 0.000000 0.000000 53.497975 80.858941 -45.749030
9.598992 15.596535 -10.397116 -0.430687 1.048804 6.981478 0.000000 0.000000 0.000000 -22.339068 -15.470770 -12.202603 2.426472 9.702690 28.019397 1.360247 4.867822 -24.266277 3.401726 -11.318072 -33.360848 0.000000 0.000000 0.000000 26.088770 14.925792 -6.573420 -1.363110 -7.389217 20.873962 0.441195 -19.361936 -23.544066 -0.084436 1.874225 -5.158200 0.662195 0.532386 10.021735 0.221494 0.818089 -2.615326 -0.278336 0.370076 -8.404758 -5.761201 -3.525172 -5.942175 5.026822 -4.508346 3.767941 2.468520 -2.188856 2.538131 0.000000 0.000000 0.000000 8.115849 16.056105 -22.173406 18.792069 -29.159539 4.929139 13.967175 2.236898 36.978869 0.000000 0.000000 0.000000 -7.125000 0.000000 0.000000 -10.566649 -7.260454 -12.011452 0.000000 0.000000 0.000000 -10.648869 15.827784 41.297834 -19.324471 -29.819839 -5.191214 -25.463633 47.123307 51.541064 0.000000 0.000000 0.000000 7.125000 0.000000 0.000000 54.341721 80.725831 -46.393601
9.597605 15.592122 -10.398340 -0.451648 1.059582 7.032973 0.000000 0.000000 0.000000 -22.282204 -15.437262 -12.388483 2.452022 9.750113 28.171164 1.369855 4.814736 -24.311607 3.447881 -11.387030 -33.596552 0.000000 0.000000 0.000000 26.094212 14.925582 -6.751839 -1.386338 -7.449795 21.055078 0.421279 -19.294807 -23.626269 -0.085806 1.889366 -5.199982 0.688569 0.526645 10.057311 0.213904 0.813460 -2.594756 -0.300718 0.366297 -8.402776 -5.744567 -3.526708 -5.945015 5.022810 -4.509364 3.698506 2.463849 -2.189077 2.514657 0.000000 0.000000 0.000000 8.209790 16.168279 -22.105167 18.790117 -29.157055 4.928165 14.076241 2.211015 36.934182 0.000000 0.000000 0.000000 -7.125000 0.000000 0.000000 -10.503405 -7.235735 -11.933206 0.000000 0.000000 0.000000 -10.651963 15.851014 41.232723 -19.295419 -29.784107 -5.176761 -25.063551 46.778840 51.649379 0.000000 0.000000 0.000000 7.125000 0.000000 0.000000 55.146684 80.593105 -47.003261
9.595643 15.588462 -10.399170 -0.475229 1.090030 7.085832 0.000000 0.000000 0.000000 -22.218592 -15.422094 -12.568944 2.479187 9.799690 28.330685 1.379212 4.757953 -24.352846 3.472141 -11.422571 -33.718833 0.000000 0.000000 0.000000 26.110888 14.919055 -6.908794 -1.405618 -7.498994 21.202563 0.404414 -19.241533 -23.701653 -0.085919 1.890724 -5.203717 0.710527 0.529626 10.135599 0.209866 0.820855 -2.602076 -0.319583 0.368297 -8.455711 -5.758262 -3.530971 -5.957655 5.062049 -4.514797 3.676019 2.479243 -2.190662 2.511714 0.000000 0.000000 0.000000 8.252726 16.227439 -21.905201 18.712394 -29.059562 4.890474 14.033947 2.408567 36.919430 0.000000 0.000000 0.000000 -7.125000 0.000000 0.000000 -10.524043 -7.213852 -11.953882 0.000000 0.000000 0.000000 -10.677921 15.939640 41.181826 -19.285534 -29.771920 -5.171856 -24.785182 46.473532 51.636627 0.000000 0.000000 0.000000 7.125000 0.000000 0.000000 55.193620 80.467881 -46.930556
9.593681 15.584802 -10.400001 -0.498810 1.120477 7.138691 0.000000 0.000000 0.000000 -22.154980 -15.406927 -12.749404 2.506353 9.849266 28.490205 1.388569 4.701170 -24.394084 3.496401 -11.458112 -33.841115 0.000000 0.000000 0.000000 26.127565 14.912528 -7.065749 -1.424898 -7.548193 21.350048 0.387549 -19.188259 -23.777036 -0.086032 1.892083 -5.207452 0.732486 0.532606 10.213888 0.205829 0.828250 -2.609395 -0.338448 0.370297 -8.508646 -5.771958 -3.535234 -5.970294 5.101287 -4.520231 3.653532 2.494637 -2.192246 2.508771 0.000000 0.000000 0.000000 8.295662 16.286599 -21.705234 18.634671 -28.962068 4.852782 13.991652 2.606119 36.904677 0.000000 0.000000 0.000000 -7.125000 0.000000 0.000000 -10.544681 -7.191969 -11.974558 0.000000 0.000000 0.000000 -10.703879 16.028267 41.130928 -19.275649 -29.759734 -5.166952 -24.506814 46.168225 51.623874 0.000000 0.000000 0.000000 7.125000 0.000000 0.000000 55.240556 80.342656 -46.857852
9.591689 15.581578 -10.401011 -0.534396 1.155508 7.198987 0.000000 0.000000 0.000000 -22.074119 -15.405898 -12.933411 2.533548 9.898527 28.648945 1.399594 4.622000 -24.436164 3.500513 -11.464129 -33.861812 0.000000 0.000000 0.000000 26.154894 14.900456 -7.235581 -1.443622 -7.595620 21.492409 0.374425 -19.141536 -23.826983 -0.085454 1.885718 -5.189852 0.763369 0.531140 10.297691 0.209530 0.831663 -2.614416 -0.353481 0.370118 -8.562376 -5.816801 -3.529025 -5.984481 5.177803 -4.510158 3.603715 2.529172 -2.185522 2.498436 0.000000 0.000000 0.000000 8.327345 16.346601 -21.500204 18.574047 -28.885956 4.823414 13.830464 2.877955 36.841830 0.000000 0.000000 0.000000 -7.125000 0.000000 0.000000 -10.622744 -7.102683 -12.051382 0.000000 0.000000 0.000000 -10.749730 16.115587 41.103455 -19.278099 -29.762752 -5.168177 -24.336565 45.967882 51.622300 0.000000 0.000000 0.000000 7.125000 0.000000 0.000000 55.303613 80.268427 -46.846659
